<?xml version="1.0" encoding="UTF-8"?>
<!DOCTYPE svg PUBLIC "-//W3C//DTD SVG 1.1//EN" "http://www.w3.org/Graphics/SVG/1.1/DTD/svg11.dtd">
<!-- Creator: CorelDRAW 2018 (64-Bit) -->
<svg xmlns="http://www.w3.org/2000/svg" xml:space="preserve" width="185mm" height="111mm" version="1.1" style="shape-rendering:geometricPrecision; text-rendering:geometricPrecision; image-rendering:optimizeQuality; fill-rule:evenodd; clip-rule:evenodd"
viewBox="0 0 18500 11100"
 xmlns:xlink="http://www.w3.org/1999/xlink">
 <defs>
  <style type="text/css">
   <![CDATA[
    .fil3 {fill:black}
    .fil0 {fill:#00853E}
    .fil1 {fill:#77B48A}
    .fil2 {fill:#C5DEC9}
   ]]>
  </style>
 </defs>
 <g id="Layer_x0020_1">
  <metadata id="CorelCorpID_0Corel-Layer"/>
  <path class="fil0" d="M11356.5 28.53c4076.41,580.42 7109.89,2785.71 7109.89,5417.9 0,2632.18 -3033.48,4837.47 -7109.89,5417.89 3457.09,-647.24 6000.01,-2827.47 6000.01,-5417.89 0,-2590.43 -2542.92,-4770.66 -6000.01,-5417.9zm-4270.38 10835.79c-4076.41,-580.42 -7109.89,-2785.71 -7109.89,-5417.89 0,-2632.19 3033.48,-4837.48 7109.89,-5417.9 -3457.09,647.24 -6000.01,2827.47 -6000.01,5417.9 0,2590.42 2542.92,4770.65 6000.01,5417.89z"/>
  <path class="fil0" d="M9457.95 11116.98c-7.61,-4 -15.17,-8.21 -22.75,-12.31 -7.6,4.04 -15.14,8.32 -22.75,12.31l-25.95 -38.79c-2488.81,-1354.69 -4429.49,-4947.1 -4570.6,-9048.64 3079.53,0 6159.07,0 9238.6,0 -141.28,4106.39 -2086.36,7702.57 -4579.41,9053.55l-17.14 33.88z"/>
  <g id="_1647583109712">
   <path class="fil1" d="M9254.95 10745.77c-7.61,-4 -15.17,-8.21 -22.75,-12.31 -7.6,4.04 -15.14,8.32 -22.75,12.31l-25.95 -38.79c-2488.81,-1354.69 -4429.49,-4947.1 -4570.6,-9048.64 3079.53,0 6159.07,0 9238.6,0 -141.28,4106.39 -2086.36,7702.57 -4579.41,9053.55l-17.14 33.88z"/>
   <path class="fil2" d="M9232.2 10733.46c-7.6,4.04 -15.14,8.32 -22.75,12.31l-25.95 -38.79c-2488.81,-1354.69 -4429.49,-4947.1 -4570.6,-9048.64l4619.3 0 0 9075.12z"/>
  </g>
  <g id="_1647583107184">
   <path class="fil3" d="M9078.05 7410.94l1105.54 2.18 622.16 -2069.62c23.38,-54.46 17.58,-37.54 21.7,-60.7l15.22 2128.66 688.34 -0.52 901.62 -2073.42c31,-58.3 16.84,-30.8 37.28,-55.48l-282.64 2124.44 1066.24 4.46 408.54 -3950.96 -1159.82 9.38 -903.94 2029.62 28.64 -2033.18 -1141.72 -1.1 -1407.16 3946.24z"/>
   <path class="fil3" d="M15777.91 5432.08c-223.86,1024.12 -1253.94,993.22 -1039.2,26.78 224.46,-1010.24 1255.94,-1018.38 1039.2,-26.78zm-2222.78 664.04c7.36,502.12 135.98,911.4 556.18,1208.74 202.26,143.1 428.54,212.22 662.72,218.04 845.22,21.02 1794.06,-781.8 2093.24,-1902.78 265.2,-993.72 53.4,-2209.2 -1101.4,-2244.56 -445.84,-13.66 -855.16,170.88 -1191.02,442.1 -674.42,544.6 -1032.3,1417.38 -1019.72,2278.46z"/>
   <path class="fil3" d="M5373.01 4882.74l-9.7 1091.7 -419.4 0.42 429.1 -1092.12zm-2229.08 2531.26l1193.54 -0.12 212.48 -504.78 813.36 0 0 501.6 1182.22 3.42 -202.72 -3942.84 -1241.8 -7.06c-655.14,1315.42 -1316.06,2627.46 -1957.08,3949.78z"/>
   <path class="fil3" d="M8200.19 5216.88l137.92 -639.14c295.24,-54.94 516.78,50.54 411.08,372.24 -78.78,239.82 -271.76,268.08 -549,266.9zm1042.72 767.84c373.34,-369.36 527.32,-691.54 617.14,-1279.82 60.42,-395.7 44.08,-795.12 -238.78,-1024.78 -153.28,-124.46 -352.84,-214.22 -547.9,-213.58l-1606.84 5.44 -872.8 3935.9 1117.9 3.06 251.42 -1159.08c623.28,-38.04 806.34,37.3 1279.86,-267.14z"/>
   <polygon class="fil3" points="1939.35,7407.6 3059.25,7414.46 3935.33,3467.16 2811.83,3465.18 "/>
  </g>
  <path class="fil3" d="M15787.08 10097.56c0,252.81 201.27,451.61 456.52,451.61 257.72,0 456.52,-198.8 456.52,-451.61 0,-250.35 -198.8,-446.7 -456.52,-446.7 -250.35,0 -456.52,191.44 -456.52,446.7zm105.54 2.46c0,-201.26 149.72,-363.26 348.53,-363.26 201.26,0 350.98,162 350.98,363.26 0,201.26 -147.26,360.8 -348.53,360.8 -184.08,0 -350.98,-144.82 -350.98,-360.8zm277.35 233.17l0 -184.08c93.27,0 132.54,0 149.72,71.17 12.27,56.45 22.09,95.72 34.36,112.91l103.09 0c-9.82,-17.19 -19.64,-44.18 -34.36,-112.91 -12.28,-58.9 -34.37,-95.72 -78.54,-110.45l0 -7.36c51.54,-14.73 93.26,-51.54 93.26,-105.54 0,-117.81 -117.81,-132.54 -198.8,-132.54 -71.18,0 -125.18,7.37 -166.9,14.73l0 454.07 98.17 0zm2.46 -390.26c9.81,-2.45 29.45,-4.9 58.9,-4.9 71.18,0 100.63,29.45 100.63,71.17 0,68.73 -83.45,68.73 -159.53,68.73l0 -135z"/>
 </g>
</svg>
